<mxfile host="app.diagrams.net" modified="2022-12-01T13:18:27.010Z" agent="5.0 (Windows NT 10.0; Win64; x64) AppleWebKit/537.36 (KHTML, like Gecko) Chrome/108.0.0.0 Safari/537.36" etag="xi5Vjzsus-T3slW2R7sD" version="20.6.0" type="github">
  <diagram id="XNznPO3dRx2tf3R0Mtfi" name="第 1 页">
    <mxGraphModel dx="782" dy="441" grid="0" gridSize="10" guides="1" tooltips="1" connect="1" arrows="1" fold="1" page="1" pageScale="1" pageWidth="827" pageHeight="1169" math="0" shadow="0">
      <root>
        <mxCell id="0" />
        <mxCell id="1" parent="0" />
        <mxCell id="_he5xSWpGCfdAF1_QPA8-20" style="edgeStyle=none;rounded=0;orthogonalLoop=1;jettySize=auto;html=1;fontSize=16;startArrow=none;startFill=0;" edge="1" parent="1" source="_he5xSWpGCfdAF1_QPA8-19" target="_he5xSWpGCfdAF1_QPA8-6">
          <mxGeometry relative="1" as="geometry" />
        </mxCell>
        <mxCell id="_he5xSWpGCfdAF1_QPA8-19" value="" style="rounded=0;whiteSpace=wrap;html=1;fontSize=16;dashed=1;fillColor=#ffe6cc;strokeColor=#d79b00;" vertex="1" parent="1">
          <mxGeometry x="397" y="1348" width="290" height="120" as="geometry" />
        </mxCell>
        <mxCell id="-265uEz0aStcjFwM6GOG-23" value="Assets" style="childLayout=tableLayout;recursiveResize=0;strokeColor=#98bf21;fillColor=#A7C942;shadow=1;direction=south;" parent="1" vertex="1">
          <mxGeometry x="380" y="230" width="220" height="160" as="geometry" />
        </mxCell>
        <mxCell id="-265uEz0aStcjFwM6GOG-24" style="shape=tableRow;horizontal=0;startSize=0;swimlaneHead=0;swimlaneBody=0;top=0;left=0;bottom=0;right=0;dropTarget=0;collapsible=0;recursiveResize=0;expand=0;fontStyle=0;strokeColor=inherit;fillColor=#ffffff;" parent="-265uEz0aStcjFwM6GOG-23" vertex="1">
          <mxGeometry width="220" height="33" as="geometry" />
        </mxCell>
        <mxCell id="-265uEz0aStcjFwM6GOG-25" value="the" style="connectable=0;recursiveResize=0;strokeColor=inherit;fillColor=#A7C942;align=center;fontStyle=1;fontColor=#FFFFFF;" parent="-265uEz0aStcjFwM6GOG-24" vertex="1">
          <mxGeometry width="73" height="33" as="geometry">
            <mxRectangle width="73" height="33" as="alternateBounds" />
          </mxGeometry>
        </mxCell>
        <mxCell id="-265uEz0aStcjFwM6GOG-26" value="red" style="connectable=0;recursiveResize=0;strokeColor=inherit;fillColor=#A7C942;align=center;fontStyle=1;fontColor=#FFFFFF;" parent="-265uEz0aStcjFwM6GOG-24" vertex="1">
          <mxGeometry x="73" width="74" height="33" as="geometry">
            <mxRectangle width="74" height="33" as="alternateBounds" />
          </mxGeometry>
        </mxCell>
        <mxCell id="-265uEz0aStcjFwM6GOG-27" value="dog" style="connectable=0;recursiveResize=0;strokeColor=inherit;fillColor=#A7C942;align=center;fontStyle=1;fontColor=#FFFFFF;" parent="-265uEz0aStcjFwM6GOG-24" vertex="1">
          <mxGeometry x="147" width="73" height="33" as="geometry">
            <mxRectangle width="73" height="33" as="alternateBounds" />
          </mxGeometry>
        </mxCell>
        <mxCell id="-265uEz0aStcjFwM6GOG-28" value="" style="shape=tableRow;horizontal=0;startSize=0;swimlaneHead=0;swimlaneBody=0;top=0;left=0;bottom=0;right=0;dropTarget=0;collapsible=0;recursiveResize=0;expand=0;fontStyle=0;strokeColor=inherit;fillColor=#ffffff;" parent="-265uEz0aStcjFwM6GOG-23" vertex="1">
          <mxGeometry y="33" width="220" height="32" as="geometry" />
        </mxCell>
        <mxCell id="-265uEz0aStcjFwM6GOG-29" value="1" style="connectable=0;recursiveResize=0;strokeColor=inherit;fillColor=inherit;align=center;" parent="-265uEz0aStcjFwM6GOG-28" vertex="1">
          <mxGeometry width="73" height="32" as="geometry">
            <mxRectangle width="73" height="32" as="alternateBounds" />
          </mxGeometry>
        </mxCell>
        <mxCell id="-265uEz0aStcjFwM6GOG-30" value="1" style="connectable=0;recursiveResize=0;strokeColor=inherit;fillColor=inherit;align=center;" parent="-265uEz0aStcjFwM6GOG-28" vertex="1">
          <mxGeometry x="73" width="74" height="32" as="geometry">
            <mxRectangle width="74" height="32" as="alternateBounds" />
          </mxGeometry>
        </mxCell>
        <mxCell id="-265uEz0aStcjFwM6GOG-31" value="1" style="connectable=0;recursiveResize=0;strokeColor=inherit;fillColor=inherit;align=center;" parent="-265uEz0aStcjFwM6GOG-28" vertex="1">
          <mxGeometry x="147" width="73" height="32" as="geometry">
            <mxRectangle width="73" height="32" as="alternateBounds" />
          </mxGeometry>
        </mxCell>
        <mxCell id="-265uEz0aStcjFwM6GOG-32" value="" style="shape=tableRow;horizontal=0;startSize=0;swimlaneHead=0;swimlaneBody=0;top=0;left=0;bottom=0;right=0;dropTarget=0;collapsible=0;recursiveResize=0;expand=0;fontStyle=1;strokeColor=inherit;fillColor=#EAF2D3;" parent="-265uEz0aStcjFwM6GOG-23" vertex="1">
          <mxGeometry y="65" width="220" height="31" as="geometry" />
        </mxCell>
        <mxCell id="-265uEz0aStcjFwM6GOG-33" value="0" style="connectable=0;recursiveResize=0;strokeColor=inherit;fillColor=inherit;" parent="-265uEz0aStcjFwM6GOG-32" vertex="1">
          <mxGeometry width="73" height="31" as="geometry">
            <mxRectangle width="73" height="31" as="alternateBounds" />
          </mxGeometry>
        </mxCell>
        <mxCell id="-265uEz0aStcjFwM6GOG-34" value="0" style="connectable=0;recursiveResize=0;strokeColor=inherit;fillColor=inherit;" parent="-265uEz0aStcjFwM6GOG-32" vertex="1">
          <mxGeometry x="73" width="74" height="31" as="geometry">
            <mxRectangle width="74" height="31" as="alternateBounds" />
          </mxGeometry>
        </mxCell>
        <mxCell id="-265uEz0aStcjFwM6GOG-35" value="1" style="connectable=0;recursiveResize=0;strokeColor=inherit;fillColor=inherit;" parent="-265uEz0aStcjFwM6GOG-32" vertex="1">
          <mxGeometry x="147" width="73" height="31" as="geometry">
            <mxRectangle width="73" height="31" as="alternateBounds" />
          </mxGeometry>
        </mxCell>
        <mxCell id="-265uEz0aStcjFwM6GOG-36" value="" style="shape=tableRow;horizontal=0;startSize=0;swimlaneHead=0;swimlaneBody=0;top=0;left=0;bottom=0;right=0;dropTarget=0;collapsible=0;recursiveResize=0;expand=0;fontStyle=0;strokeColor=inherit;fillColor=#ffffff;" parent="-265uEz0aStcjFwM6GOG-23" vertex="1">
          <mxGeometry y="96" width="220" height="33" as="geometry" />
        </mxCell>
        <mxCell id="-265uEz0aStcjFwM6GOG-37" value="0" style="connectable=0;recursiveResize=0;strokeColor=inherit;fillColor=inherit;fontStyle=0;align=center;" parent="-265uEz0aStcjFwM6GOG-36" vertex="1">
          <mxGeometry width="73" height="33" as="geometry">
            <mxRectangle width="73" height="33" as="alternateBounds" />
          </mxGeometry>
        </mxCell>
        <mxCell id="-265uEz0aStcjFwM6GOG-38" value="0" style="connectable=0;recursiveResize=0;strokeColor=inherit;fillColor=inherit;fontStyle=0;align=center;" parent="-265uEz0aStcjFwM6GOG-36" vertex="1">
          <mxGeometry x="73" width="74" height="33" as="geometry">
            <mxRectangle width="74" height="33" as="alternateBounds" />
          </mxGeometry>
        </mxCell>
        <mxCell id="-265uEz0aStcjFwM6GOG-39" value="1" style="connectable=0;recursiveResize=0;strokeColor=inherit;fillColor=inherit;fontStyle=0;align=center;" parent="-265uEz0aStcjFwM6GOG-36" vertex="1">
          <mxGeometry x="147" width="73" height="33" as="geometry">
            <mxRectangle width="73" height="33" as="alternateBounds" />
          </mxGeometry>
        </mxCell>
        <mxCell id="-265uEz0aStcjFwM6GOG-40" value="" style="shape=tableRow;horizontal=0;startSize=0;swimlaneHead=0;swimlaneBody=0;top=0;left=0;bottom=0;right=0;dropTarget=0;collapsible=0;recursiveResize=0;expand=0;fontStyle=1;strokeColor=inherit;fillColor=#EAF2D3;" parent="-265uEz0aStcjFwM6GOG-23" vertex="1">
          <mxGeometry y="129" width="220" height="31" as="geometry" />
        </mxCell>
        <mxCell id="-265uEz0aStcjFwM6GOG-41" value="0" style="connectable=0;recursiveResize=0;strokeColor=inherit;fillColor=inherit;" parent="-265uEz0aStcjFwM6GOG-40" vertex="1">
          <mxGeometry width="73" height="31" as="geometry">
            <mxRectangle width="73" height="31" as="alternateBounds" />
          </mxGeometry>
        </mxCell>
        <mxCell id="-265uEz0aStcjFwM6GOG-42" value="1" style="connectable=0;recursiveResize=0;strokeColor=inherit;fillColor=inherit;" parent="-265uEz0aStcjFwM6GOG-40" vertex="1">
          <mxGeometry x="73" width="74" height="31" as="geometry">
            <mxRectangle width="74" height="31" as="alternateBounds" />
          </mxGeometry>
        </mxCell>
        <mxCell id="-265uEz0aStcjFwM6GOG-43" value="0" style="connectable=0;recursiveResize=0;strokeColor=inherit;fillColor=inherit;metaEdit=0;" parent="-265uEz0aStcjFwM6GOG-40" vertex="1">
          <mxGeometry x="147" width="73" height="31" as="geometry">
            <mxRectangle width="73" height="31" as="alternateBounds" />
          </mxGeometry>
        </mxCell>
        <mxCell id="-265uEz0aStcjFwM6GOG-84" value="1" style="childLayout=tableLayout;recursiveResize=0;strokeColor=#98bf21;fillColor=#A7C942;shadow=1;direction=south;" parent="1" vertex="1">
          <mxGeometry x="600" y="230" width="200" height="160" as="geometry" />
        </mxCell>
        <mxCell id="-265uEz0aStcjFwM6GOG-85" style="shape=tableRow;horizontal=0;startSize=0;swimlaneHead=0;swimlaneBody=0;top=0;left=0;bottom=0;right=0;dropTarget=0;collapsible=0;recursiveResize=0;expand=0;fontStyle=0;strokeColor=inherit;fillColor=#ffffff;" parent="-265uEz0aStcjFwM6GOG-84" vertex="1">
          <mxGeometry width="200" height="33" as="geometry" />
        </mxCell>
        <mxCell id="-265uEz0aStcjFwM6GOG-86" value="cat" style="connectable=0;recursiveResize=0;strokeColor=inherit;fillColor=#A7C942;align=center;fontStyle=1;fontColor=#FFFFFF;" parent="-265uEz0aStcjFwM6GOG-85" vertex="1">
          <mxGeometry width="66" height="33" as="geometry">
            <mxRectangle width="66" height="33" as="alternateBounds" />
          </mxGeometry>
        </mxCell>
        <mxCell id="-265uEz0aStcjFwM6GOG-87" value="eats" style="connectable=0;recursiveResize=0;strokeColor=inherit;fillColor=#A7C942;align=center;fontStyle=1;fontColor=#FFFFFF;" parent="-265uEz0aStcjFwM6GOG-85" vertex="1">
          <mxGeometry x="66" width="68" height="33" as="geometry">
            <mxRectangle width="68" height="33" as="alternateBounds" />
          </mxGeometry>
        </mxCell>
        <mxCell id="-265uEz0aStcjFwM6GOG-88" value="food" style="connectable=0;recursiveResize=0;strokeColor=inherit;fillColor=#A7C942;align=center;fontStyle=1;fontColor=#FFFFFF;" parent="-265uEz0aStcjFwM6GOG-85" vertex="1">
          <mxGeometry x="134" width="66" height="33" as="geometry">
            <mxRectangle width="66" height="33" as="alternateBounds" />
          </mxGeometry>
        </mxCell>
        <mxCell id="-265uEz0aStcjFwM6GOG-89" value="" style="shape=tableRow;horizontal=0;startSize=0;swimlaneHead=0;swimlaneBody=0;top=0;left=0;bottom=0;right=0;dropTarget=0;collapsible=0;recursiveResize=0;expand=0;fontStyle=0;strokeColor=inherit;fillColor=#ffffff;" parent="-265uEz0aStcjFwM6GOG-84" vertex="1">
          <mxGeometry y="33" width="200" height="32" as="geometry" />
        </mxCell>
        <mxCell id="-265uEz0aStcjFwM6GOG-90" value="0" style="connectable=0;recursiveResize=0;strokeColor=inherit;fillColor=inherit;align=center;" parent="-265uEz0aStcjFwM6GOG-89" vertex="1">
          <mxGeometry width="66" height="32" as="geometry">
            <mxRectangle width="66" height="32" as="alternateBounds" />
          </mxGeometry>
        </mxCell>
        <mxCell id="-265uEz0aStcjFwM6GOG-91" value="0" style="connectable=0;recursiveResize=0;strokeColor=inherit;fillColor=inherit;align=center;" parent="-265uEz0aStcjFwM6GOG-89" vertex="1">
          <mxGeometry x="66" width="68" height="32" as="geometry">
            <mxRectangle width="68" height="32" as="alternateBounds" />
          </mxGeometry>
        </mxCell>
        <mxCell id="-265uEz0aStcjFwM6GOG-92" value="0" style="connectable=0;recursiveResize=0;strokeColor=inherit;fillColor=inherit;align=center;" parent="-265uEz0aStcjFwM6GOG-89" vertex="1">
          <mxGeometry x="134" width="66" height="32" as="geometry">
            <mxRectangle width="66" height="32" as="alternateBounds" />
          </mxGeometry>
        </mxCell>
        <mxCell id="-265uEz0aStcjFwM6GOG-93" value="" style="shape=tableRow;horizontal=0;startSize=0;swimlaneHead=0;swimlaneBody=0;top=0;left=0;bottom=0;right=0;dropTarget=0;collapsible=0;recursiveResize=0;expand=0;fontStyle=1;strokeColor=inherit;fillColor=#EAF2D3;" parent="-265uEz0aStcjFwM6GOG-84" vertex="1">
          <mxGeometry y="65" width="200" height="31" as="geometry" />
        </mxCell>
        <mxCell id="-265uEz0aStcjFwM6GOG-94" value="1" style="connectable=0;recursiveResize=0;strokeColor=inherit;fillColor=inherit;" parent="-265uEz0aStcjFwM6GOG-93" vertex="1">
          <mxGeometry width="66" height="31" as="geometry">
            <mxRectangle width="66" height="31" as="alternateBounds" />
          </mxGeometry>
        </mxCell>
        <mxCell id="-265uEz0aStcjFwM6GOG-95" value="1" style="connectable=0;recursiveResize=0;strokeColor=inherit;fillColor=inherit;" parent="-265uEz0aStcjFwM6GOG-93" vertex="1">
          <mxGeometry x="66" width="68" height="31" as="geometry">
            <mxRectangle width="68" height="31" as="alternateBounds" />
          </mxGeometry>
        </mxCell>
        <mxCell id="-265uEz0aStcjFwM6GOG-96" value="0" style="connectable=0;recursiveResize=0;strokeColor=inherit;fillColor=inherit;" parent="-265uEz0aStcjFwM6GOG-93" vertex="1">
          <mxGeometry x="134" width="66" height="31" as="geometry">
            <mxRectangle width="66" height="31" as="alternateBounds" />
          </mxGeometry>
        </mxCell>
        <mxCell id="-265uEz0aStcjFwM6GOG-97" value="" style="shape=tableRow;horizontal=0;startSize=0;swimlaneHead=0;swimlaneBody=0;top=0;left=0;bottom=0;right=0;dropTarget=0;collapsible=0;recursiveResize=0;expand=0;fontStyle=0;strokeColor=inherit;fillColor=#ffffff;" parent="-265uEz0aStcjFwM6GOG-84" vertex="1">
          <mxGeometry y="96" width="200" height="33" as="geometry" />
        </mxCell>
        <mxCell id="-265uEz0aStcjFwM6GOG-98" value="0" style="connectable=0;recursiveResize=0;strokeColor=inherit;fillColor=inherit;fontStyle=0;align=center;" parent="-265uEz0aStcjFwM6GOG-97" vertex="1">
          <mxGeometry width="66" height="33" as="geometry">
            <mxRectangle width="66" height="33" as="alternateBounds" />
          </mxGeometry>
        </mxCell>
        <mxCell id="-265uEz0aStcjFwM6GOG-99" value="1" style="connectable=0;recursiveResize=0;strokeColor=inherit;fillColor=inherit;fontStyle=0;align=center;" parent="-265uEz0aStcjFwM6GOG-97" vertex="1">
          <mxGeometry x="66" width="68" height="33" as="geometry">
            <mxRectangle width="68" height="33" as="alternateBounds" />
          </mxGeometry>
        </mxCell>
        <mxCell id="-265uEz0aStcjFwM6GOG-100" value="1" style="connectable=0;recursiveResize=0;strokeColor=inherit;fillColor=inherit;fontStyle=0;align=center;" parent="-265uEz0aStcjFwM6GOG-97" vertex="1">
          <mxGeometry x="134" width="66" height="33" as="geometry">
            <mxRectangle width="66" height="33" as="alternateBounds" />
          </mxGeometry>
        </mxCell>
        <mxCell id="-265uEz0aStcjFwM6GOG-101" value="" style="shape=tableRow;horizontal=0;startSize=0;swimlaneHead=0;swimlaneBody=0;top=0;left=0;bottom=0;right=0;dropTarget=0;collapsible=0;recursiveResize=0;expand=0;fontStyle=1;strokeColor=inherit;fillColor=#EAF2D3;" parent="-265uEz0aStcjFwM6GOG-84" vertex="1">
          <mxGeometry y="129" width="200" height="31" as="geometry" />
        </mxCell>
        <mxCell id="-265uEz0aStcjFwM6GOG-102" value="1" style="connectable=0;recursiveResize=0;strokeColor=inherit;fillColor=inherit;" parent="-265uEz0aStcjFwM6GOG-101" vertex="1">
          <mxGeometry width="66" height="31" as="geometry">
            <mxRectangle width="66" height="31" as="alternateBounds" />
          </mxGeometry>
        </mxCell>
        <mxCell id="-265uEz0aStcjFwM6GOG-103" value="1" style="connectable=0;recursiveResize=0;strokeColor=inherit;fillColor=inherit;" parent="-265uEz0aStcjFwM6GOG-101" vertex="1">
          <mxGeometry x="66" width="68" height="31" as="geometry">
            <mxRectangle width="68" height="31" as="alternateBounds" />
          </mxGeometry>
        </mxCell>
        <object label="0" id="-265uEz0aStcjFwM6GOG-104">
          <mxCell style="connectable=0;recursiveResize=0;strokeColor=inherit;fillColor=inherit;metaEdit=0;" parent="-265uEz0aStcjFwM6GOG-101" vertex="1">
            <mxGeometry x="134" width="66" height="31" as="geometry">
              <mxRectangle width="66" height="31" as="alternateBounds" />
            </mxGeometry>
          </mxCell>
        </object>
        <mxCell id="-265uEz0aStcjFwM6GOG-112" style="edgeStyle=orthogonalEdgeStyle;rounded=0;orthogonalLoop=1;jettySize=auto;html=1;entryX=0;entryY=0.5;entryDx=0;entryDy=0;fontSize=14;" parent="1" source="-265uEz0aStcjFwM6GOG-108" target="-265uEz0aStcjFwM6GOG-28" edge="1">
          <mxGeometry relative="1" as="geometry" />
        </mxCell>
        <mxCell id="-265uEz0aStcjFwM6GOG-108" value="&lt;font style=&quot;font-size: 14px;&quot;&gt;1. the red dog&amp;nbsp;&amp;nbsp;&lt;/font&gt;" style="text;html=1;strokeColor=none;fillColor=none;align=left;verticalAlign=middle;whiteSpace=wrap;rounded=0;" parent="1" vertex="1">
          <mxGeometry x="210" y="266.5" width="110" height="25" as="geometry" />
        </mxCell>
        <mxCell id="-265uEz0aStcjFwM6GOG-113" style="edgeStyle=orthogonalEdgeStyle;rounded=0;orthogonalLoop=1;jettySize=auto;html=1;entryX=0;entryY=0.5;entryDx=0;entryDy=0;fontSize=14;" parent="1" source="-265uEz0aStcjFwM6GOG-109" target="-265uEz0aStcjFwM6GOG-32" edge="1">
          <mxGeometry relative="1" as="geometry" />
        </mxCell>
        <mxCell id="-265uEz0aStcjFwM6GOG-109" value="&lt;font style=&quot;font-size: 14px;&quot;&gt;2. cat eats dog&amp;nbsp;&lt;/font&gt;" style="text;html=1;strokeColor=none;fillColor=none;align=left;verticalAlign=middle;whiteSpace=wrap;rounded=0;" parent="1" vertex="1">
          <mxGeometry x="210" y="298" width="110" height="25" as="geometry" />
        </mxCell>
        <mxCell id="-265uEz0aStcjFwM6GOG-114" style="edgeStyle=orthogonalEdgeStyle;rounded=0;orthogonalLoop=1;jettySize=auto;html=1;entryX=0;entryY=0.5;entryDx=0;entryDy=0;fontSize=14;" parent="1" source="-265uEz0aStcjFwM6GOG-110" target="-265uEz0aStcjFwM6GOG-36" edge="1">
          <mxGeometry relative="1" as="geometry" />
        </mxCell>
        <mxCell id="-265uEz0aStcjFwM6GOG-110" value="&lt;font style=&quot;font-size: 14px;&quot;&gt;3. dog eats foog&lt;/font&gt;" style="text;html=1;strokeColor=none;fillColor=none;align=left;verticalAlign=middle;whiteSpace=wrap;rounded=0;" parent="1" vertex="1">
          <mxGeometry x="210" y="330" width="110" height="25" as="geometry" />
        </mxCell>
        <mxCell id="-265uEz0aStcjFwM6GOG-115" style="edgeStyle=orthogonalEdgeStyle;rounded=0;orthogonalLoop=1;jettySize=auto;html=1;entryX=0;entryY=0.5;entryDx=0;entryDy=0;fontSize=14;" parent="1" source="-265uEz0aStcjFwM6GOG-111" target="-265uEz0aStcjFwM6GOG-40" edge="1">
          <mxGeometry relative="1" as="geometry" />
        </mxCell>
        <mxCell id="-265uEz0aStcjFwM6GOG-111" value="&lt;font style=&quot;font-size: 14px;&quot;&gt;4. red cat eats&amp;nbsp;&lt;/font&gt;" style="text;html=1;strokeColor=none;fillColor=none;align=left;verticalAlign=middle;whiteSpace=wrap;rounded=0;" parent="1" vertex="1">
          <mxGeometry x="210" y="362" width="110" height="25" as="geometry" />
        </mxCell>
        <mxCell id="-265uEz0aStcjFwM6GOG-176" style="edgeStyle=orthogonalEdgeStyle;rounded=1;orthogonalLoop=1;jettySize=auto;html=1;entryX=0;entryY=0.5;entryDx=0;entryDy=0;fontSize=14;" parent="1" source="-265uEz0aStcjFwM6GOG-117" target="-265uEz0aStcjFwM6GOG-159" edge="1">
          <mxGeometry relative="1" as="geometry" />
        </mxCell>
        <mxCell id="-265uEz0aStcjFwM6GOG-117" value="King" style="text;html=1;strokeColor=none;fillColor=none;align=center;verticalAlign=middle;whiteSpace=wrap;rounded=0;fontSize=14;" parent="1" vertex="1">
          <mxGeometry x="220" y="555" width="60" height="30" as="geometry" />
        </mxCell>
        <mxCell id="-265uEz0aStcjFwM6GOG-177" style="edgeStyle=orthogonalEdgeStyle;rounded=0;orthogonalLoop=1;jettySize=auto;html=1;entryX=0;entryY=0.5;entryDx=0;entryDy=0;fontSize=14;" parent="1" source="-265uEz0aStcjFwM6GOG-119" target="-265uEz0aStcjFwM6GOG-167" edge="1">
          <mxGeometry relative="1" as="geometry" />
        </mxCell>
        <mxCell id="-265uEz0aStcjFwM6GOG-119" value="Man" style="text;html=1;strokeColor=none;fillColor=none;align=center;verticalAlign=middle;whiteSpace=wrap;rounded=0;fontSize=14;" parent="1" vertex="1">
          <mxGeometry x="220" y="640" width="60" height="30" as="geometry" />
        </mxCell>
        <mxCell id="-265uEz0aStcjFwM6GOG-178" style="edgeStyle=orthogonalEdgeStyle;rounded=0;orthogonalLoop=1;jettySize=auto;html=1;exitX=1;exitY=0.5;exitDx=0;exitDy=0;entryX=0;entryY=0.5;entryDx=0;entryDy=0;fontSize=14;" parent="1" source="-265uEz0aStcjFwM6GOG-120" target="-265uEz0aStcjFwM6GOG-172" edge="1">
          <mxGeometry relative="1" as="geometry" />
        </mxCell>
        <mxCell id="-265uEz0aStcjFwM6GOG-120" value="Woman" style="text;html=1;strokeColor=none;fillColor=none;align=center;verticalAlign=middle;whiteSpace=wrap;rounded=0;fontSize=14;" parent="1" vertex="1">
          <mxGeometry x="220" y="730" width="60" height="30" as="geometry" />
        </mxCell>
        <mxCell id="-265uEz0aStcjFwM6GOG-165" value="" style="group;fillColor=#cce5ff;strokeColor=#36393d;" parent="1" vertex="1" connectable="0">
          <mxGeometry x="560" y="555" width="200" height="30" as="geometry" />
        </mxCell>
        <mxCell id="-265uEz0aStcjFwM6GOG-159" value="" style="rounded=0;whiteSpace=wrap;html=1;fontSize=14;fillColor=#cce5ff;strokeColor=#36393d;" parent="-265uEz0aStcjFwM6GOG-165" vertex="1">
          <mxGeometry width="50" height="30" as="geometry" />
        </mxCell>
        <mxCell id="-265uEz0aStcjFwM6GOG-160" value="" style="rounded=0;whiteSpace=wrap;html=1;fontSize=14;fillColor=#cdeb8b;strokeColor=#36393d;" parent="-265uEz0aStcjFwM6GOG-165" vertex="1">
          <mxGeometry x="50" width="50" height="30" as="geometry" />
        </mxCell>
        <mxCell id="-265uEz0aStcjFwM6GOG-161" value="" style="rounded=0;whiteSpace=wrap;html=1;fontSize=14;fillColor=#fff2cc;gradientColor=#ffd966;strokeColor=#d6b656;" parent="-265uEz0aStcjFwM6GOG-165" vertex="1">
          <mxGeometry x="100" width="50" height="30" as="geometry" />
        </mxCell>
        <mxCell id="-265uEz0aStcjFwM6GOG-162" value="" style="rounded=0;whiteSpace=wrap;html=1;fontSize=14;fillColor=#ffcccc;strokeColor=#36393d;" parent="-265uEz0aStcjFwM6GOG-165" vertex="1">
          <mxGeometry x="150" width="50" height="30" as="geometry" />
        </mxCell>
        <mxCell id="-265uEz0aStcjFwM6GOG-166" value="" style="group" parent="1" vertex="1" connectable="0">
          <mxGeometry x="560" y="640" width="200" height="30" as="geometry" />
        </mxCell>
        <mxCell id="-265uEz0aStcjFwM6GOG-167" value="" style="rounded=0;whiteSpace=wrap;html=1;fontSize=14;fillColor=#ffcccc;strokeColor=#36393d;" parent="-265uEz0aStcjFwM6GOG-166" vertex="1">
          <mxGeometry width="50" height="30" as="geometry" />
        </mxCell>
        <mxCell id="-265uEz0aStcjFwM6GOG-168" value="" style="rounded=0;whiteSpace=wrap;html=1;fontSize=14;fillColor=#cdeb8b;strokeColor=#36393d;" parent="-265uEz0aStcjFwM6GOG-166" vertex="1">
          <mxGeometry x="50" width="50" height="30" as="geometry" />
        </mxCell>
        <mxCell id="-265uEz0aStcjFwM6GOG-169" value="" style="rounded=0;whiteSpace=wrap;html=1;fontSize=14;fillColor=#ffcc99;strokeColor=#36393d;" parent="-265uEz0aStcjFwM6GOG-166" vertex="1">
          <mxGeometry x="100" width="50" height="30" as="geometry" />
        </mxCell>
        <mxCell id="-265uEz0aStcjFwM6GOG-170" value="" style="rounded=0;whiteSpace=wrap;html=1;fontSize=14;fillColor=#cce5ff;strokeColor=#36393d;" parent="-265uEz0aStcjFwM6GOG-166" vertex="1">
          <mxGeometry x="150" width="50" height="30" as="geometry" />
        </mxCell>
        <mxCell id="-265uEz0aStcjFwM6GOG-171" value="" style="group" parent="1" vertex="1" connectable="0">
          <mxGeometry x="560" y="730" width="200" height="30" as="geometry" />
        </mxCell>
        <mxCell id="-265uEz0aStcjFwM6GOG-172" value="" style="rounded=0;whiteSpace=wrap;html=1;fontSize=14;fillColor=#cdeb8b;strokeColor=#36393d;" parent="-265uEz0aStcjFwM6GOG-171" vertex="1">
          <mxGeometry width="50" height="30" as="geometry" />
        </mxCell>
        <mxCell id="-265uEz0aStcjFwM6GOG-173" value="" style="rounded=0;whiteSpace=wrap;html=1;fontSize=14;fillColor=#ffcccc;strokeColor=#36393d;" parent="-265uEz0aStcjFwM6GOG-171" vertex="1">
          <mxGeometry x="50" width="50" height="30" as="geometry" />
        </mxCell>
        <mxCell id="-265uEz0aStcjFwM6GOG-174" value="" style="rounded=0;whiteSpace=wrap;html=1;fontSize=14;fillColor=#cce5ff;strokeColor=#36393d;" parent="-265uEz0aStcjFwM6GOG-171" vertex="1">
          <mxGeometry x="100" width="50" height="30" as="geometry" />
        </mxCell>
        <mxCell id="-265uEz0aStcjFwM6GOG-175" value="" style="rounded=0;whiteSpace=wrap;html=1;fontSize=14;fillColor=#ffcc99;strokeColor=#36393d;" parent="-265uEz0aStcjFwM6GOG-171" vertex="1">
          <mxGeometry x="150" width="50" height="30" as="geometry" />
        </mxCell>
        <mxCell id="-265uEz0aStcjFwM6GOG-179" value="Model" style="text;html=1;strokeColor=none;fillColor=none;align=center;verticalAlign=middle;whiteSpace=wrap;rounded=0;fontSize=14;" parent="1" vertex="1">
          <mxGeometry x="390" y="497.5" width="60" height="30" as="geometry" />
        </mxCell>
        <mxCell id="-265uEz0aStcjFwM6GOG-116" value="" style="rounded=1;whiteSpace=wrap;html=1;fontSize=14;fillColor=#fff2cc;gradientColor=#ffd966;strokeColor=#d6b656;" parent="1" vertex="1">
          <mxGeometry x="400" y="527.5" width="40" height="255" as="geometry" />
        </mxCell>
        <mxCell id="_he5xSWpGCfdAF1_QPA8-16" style="edgeStyle=none;rounded=0;orthogonalLoop=1;jettySize=auto;html=1;entryX=0.5;entryY=0;entryDx=0;entryDy=0;fontSize=16;startArrow=none;startFill=0;" edge="1" parent="1" source="_he5xSWpGCfdAF1_QPA8-5" target="_he5xSWpGCfdAF1_QPA8-14">
          <mxGeometry relative="1" as="geometry" />
        </mxCell>
        <mxCell id="_he5xSWpGCfdAF1_QPA8-17" style="edgeStyle=none;rounded=0;orthogonalLoop=1;jettySize=auto;html=1;entryX=0.5;entryY=0;entryDx=0;entryDy=0;fontSize=16;startArrow=none;startFill=0;" edge="1" parent="1" source="_he5xSWpGCfdAF1_QPA8-5" target="_he5xSWpGCfdAF1_QPA8-15">
          <mxGeometry relative="1" as="geometry" />
        </mxCell>
        <mxCell id="_he5xSWpGCfdAF1_QPA8-5" value="&lt;font style=&quot;font-size: 16px;&quot;&gt;数据&lt;/font&gt;" style="rounded=1;whiteSpace=wrap;html=1;fillColor=#ffe6cc;strokeColor=#d79b00;" vertex="1" parent="1">
          <mxGeometry x="482" y="1229" width="120" height="60" as="geometry" />
        </mxCell>
        <mxCell id="_he5xSWpGCfdAF1_QPA8-10" style="rounded=0;orthogonalLoop=1;jettySize=auto;html=1;entryX=0.855;entryY=0;entryDx=0;entryDy=4.35;entryPerimeter=0;fontSize=16;startArrow=classic;startFill=1;exitX=0.75;exitY=1;exitDx=0;exitDy=0;" edge="1" parent="1" source="_he5xSWpGCfdAF1_QPA8-6" target="_he5xSWpGCfdAF1_QPA8-8">
          <mxGeometry relative="1" as="geometry">
            <mxPoint x="141" y="1339" as="sourcePoint" />
          </mxGeometry>
        </mxCell>
        <mxCell id="_he5xSWpGCfdAF1_QPA8-11" value="&lt;font style=&quot;font-size: 14px;&quot;&gt;1. 连接数据库&lt;/font&gt;" style="edgeLabel;html=1;align=center;verticalAlign=middle;resizable=0;points=[];fontSize=16;labelBorderColor=none;labelBackgroundColor=none;fontColor=#EA6B66;" vertex="1" connectable="0" parent="_he5xSWpGCfdAF1_QPA8-10">
          <mxGeometry x="-0.1599" relative="1" as="geometry">
            <mxPoint x="1" as="offset" />
          </mxGeometry>
        </mxCell>
        <mxCell id="_he5xSWpGCfdAF1_QPA8-22" style="edgeStyle=none;rounded=0;orthogonalLoop=1;jettySize=auto;html=1;fontSize=14;startArrow=none;startFill=0;exitX=0.25;exitY=1;exitDx=0;exitDy=0;entryX=0.145;entryY=0;entryDx=0;entryDy=4.35;entryPerimeter=0;" edge="1" parent="1" source="_he5xSWpGCfdAF1_QPA8-6" target="_he5xSWpGCfdAF1_QPA8-8">
          <mxGeometry relative="1" as="geometry">
            <mxPoint x="232" y="1594" as="targetPoint" />
          </mxGeometry>
        </mxCell>
        <mxCell id="_he5xSWpGCfdAF1_QPA8-23" value="3. 读入数据" style="edgeLabel;html=1;align=center;verticalAlign=middle;resizable=0;points=[];fontSize=14;fontColor=#EA6B66;" vertex="1" connectable="0" parent="_he5xSWpGCfdAF1_QPA8-22">
          <mxGeometry x="-0.1522" y="3" relative="1" as="geometry">
            <mxPoint as="offset" />
          </mxGeometry>
        </mxCell>
        <mxCell id="_he5xSWpGCfdAF1_QPA8-6" value="&lt;font style=&quot;font-size: 16px;&quot;&gt;build_graph函数&lt;/font&gt;" style="rounded=1;whiteSpace=wrap;html=1;fillColor=#e1d5e7;strokeColor=#9673a6;" vertex="1" parent="1">
          <mxGeometry x="447" y="1547" width="190" height="70" as="geometry" />
        </mxCell>
        <mxCell id="_he5xSWpGCfdAF1_QPA8-8" value="&lt;font style=&quot;font-size: 16px;&quot;&gt;neo4j&lt;/font&gt;" style="shape=cylinder3;whiteSpace=wrap;html=1;boundedLbl=1;backgroundOutline=1;size=15;fillColor=#d5e8d4;strokeColor=#82b366;" vertex="1" parent="1">
          <mxGeometry x="473.5" y="1754" width="137" height="136" as="geometry" />
        </mxCell>
        <mxCell id="_he5xSWpGCfdAF1_QPA8-14" value="&lt;font style=&quot;font-size: 16px;&quot;&gt;节点&lt;/font&gt;" style="ellipse;whiteSpace=wrap;html=1;aspect=fixed;fontSize=14;fillColor=#fff2cc;strokeColor=#d6b656;" vertex="1" parent="1">
          <mxGeometry x="442" y="1369" width="80" height="80" as="geometry" />
        </mxCell>
        <mxCell id="_he5xSWpGCfdAF1_QPA8-15" value="关系" style="rhombus;whiteSpace=wrap;html=1;fontSize=16;fillColor=#fff2cc;strokeColor=#d6b656;" vertex="1" parent="1">
          <mxGeometry x="562" y="1369" width="90" height="90" as="geometry" />
        </mxCell>
        <mxCell id="_he5xSWpGCfdAF1_QPA8-18" value="&lt;font color=&quot;#ea6b66&quot; style=&quot;font-size: 14px;&quot;&gt;2. 处理数据&lt;/font&gt;" style="text;html=1;strokeColor=none;fillColor=none;align=center;verticalAlign=middle;whiteSpace=wrap;rounded=0;fontSize=16;" vertex="1" parent="1">
          <mxGeometry x="397" y="1328" width="90" height="20" as="geometry" />
        </mxCell>
      </root>
    </mxGraphModel>
  </diagram>
</mxfile>
